<svg xmlns="http://www.w3.org/2000/svg" id="Layer_1" data-name="Layer 1" viewBox="0 0 2404.89 953.35"><defs><style>.cls-1,.cls-2,.cls-3,.cls-4,.cls-5,.cls-6,.cls-7,.cls-8{fill:none;stroke-miterlimit:10;stroke-width:16.51px}.cls-1{stroke:#0088ce}.cls-2{stroke:#c00}.cls-3{stroke:#f0ab00}.cls-4{stroke:#3f9c35}.cls-5{stroke:#ec7a08}.cls-6{stroke:#92d400}.cls-7{stroke:#00b9e4}.cls-8{stroke:#820000}</style></defs><title>RHD_Assets For Online Standards</title><line x1="1065.05" x2="1578.77" y1="253.79" y2="253.79" class="cls-1"/><line x1="1192.79" x2="1903.81" y1="402.38" y2="402.38" class="cls-2"/><path d="M1652.4,625.27a46.43,46.43,0,0,0,32.83-13.6l47.09-47.09a46.43,46.43,0,0,1,32.83-13.6h17.91" class="cls-3"/><path d="M798.67,625.27h27.2a46.43,46.43,0,0,0,32.83-13.6L980.09,490.28a46.43,46.43,0,0,1,32.83-13.6h73.63" class="cls-3"/><path d="M44.6,105.2H71.8a46.43,46.43,0,0,1,32.83,13.6L226,240.19a46.43,46.43,0,0,0,32.83,13.6h73.63" class="cls-4"/><path d="M928.69,476.68h138.64a46.43,46.43,0,0,1,32.83,13.6l47.09,47.09a46.43,46.43,0,0,0,32.83,13.6h843.79a46.43,46.43,0,0,0,32.83-13.6l47.09-47.09a46.43,46.43,0,0,1,32.83-13.6h17.91" class="cls-3"/><path d="M0,476.68H343a46.43,46.43,0,0,1,32.83,13.6l47.09,47.09A46.43,46.43,0,0,0,455.72,551h17.91" class="cls-5"/><path d="M0,551H677.28a46.43,46.43,0,0,1,32.83,13.6l47.09,47.09A46.43,46.43,0,0,0,790,625.27h36.49" class="cls-5"/><path d="M724.95,402.38h676.38a46.43,46.43,0,0,0,32.83-13.6" class="cls-2"/><path d="M1434.16,388.78l47.09-47.09a46.43,46.43,0,0,1,32.83-13.6h27.2" class="cls-2"/><path d="M1518.07,193.1l121.39,121.39a46.43,46.43,0,0,0,32.83,13.6h36.49" class="cls-6"/><line x1="733" x2="383.63" y1="402.38" y2="402.38" class="cls-2"/><path d="M558.31,253.79h101.5a46.43,46.43,0,0,1,32.83,13.6l47.09,47.09a46.43,46.43,0,0,0,32.83,13.6H1810.28a46.43,46.43,0,0,1,32.83,13.6L1964.5,463.08a46.43,46.43,0,0,0,32.83,13.6h17.91" class="cls-7"/><path d="M1308.79,699.56a46.43,46.43,0,0,0,32.83-13.6l32.83-32.83" class="cls-6"/><path d="M306.47,402.38h82.92a46.43,46.43,0,0,0,32.83-13.6L543.61,267.39a46.43,46.43,0,0,1,32.83-13.6h45.77" class="cls-8"/><path d="M0,328.09H296.52a46.43,46.43,0,0,0,32.83-13.6l47.09-47.09a46.43,46.43,0,0,1,32.83-13.6H427.2" class="cls-1"/><path d="M0,773.86H420.43a46.43,46.43,0,0,0,32.83-13.6l47.09-47.09a46.43,46.43,0,0,1,32.83-13.6h27.2" class="cls-4"/><path d="M1253.73,551H1373.8a46.43,46.43,0,0,1,32.83,13.6l47.09,47.09a46.43,46.43,0,0,0,32.83,13.6H1625.2" class="cls-3"/><path d="M74.29,773.86h55.06a46.43,46.43,0,0,1,32.83,13.6l47.09,47.09a46.43,46.43,0,0,0,32.83,13.6H352.9" class="cls-4"/><path d="M882.25,699.56h92.21A46.43,46.43,0,0,0,1007.3,686l47.09-47.09a46.43,46.43,0,0,1,32.83-13.6h64.35" class="cls-6"/><path d="M197.83,105.2H290a46.43,46.43,0,0,1,32.83,13.6L370,165.9a46.43,46.43,0,0,0,32.83,13.6h64.35" class="cls-6"/><path d="M0,848.15H872.31a46.43,46.43,0,0,0,32.83-13.6l47.09-47.09a46.43,46.43,0,0,1,32.83-13.6h45.77" class="cls-1"/><path d="M579,699.56h17.91a46.43,46.43,0,0,1,32.83,13.6l47.09,47.09a46.43,46.43,0,0,0,32.83,13.6h524.85a46.43,46.43,0,0,0,32.83-13.6l121.39-121.39a46.43,46.43,0,0,1,32.83-13.6h17.91" class="cls-7"/><path d="M0,105.2H816.58a46.43,46.43,0,0,1,32.83,13.6l47.09,47.09a46.43,46.43,0,0,0,32.83,13.6h27.2" class="cls-4"/><line x2="1652.4" y1="625.27" y2="625.27" class="cls-3"/><line x2="1308.79" y1="699.56" y2="699.56" class="cls-6"/><path d="M0,253.79H1071.62a46.43,46.43,0,0,0,32.83-13.6l47.09-47.09a46.43,46.43,0,0,1,32.83-13.6h17.91" class="cls-1"/><path d="M455.27,179.5h1030a46.43,46.43,0,0,1,32.83,13.6" class="cls-6"/><line x1="306.47" y1="402.38" y2="402.38" class="cls-8"/><path d="M2404.89,476.68H622.22a46.43,46.43,0,0,1-32.83-13.6L542.29,416a46.43,46.43,0,0,0-32.83-13.6" class="cls-2"/></svg>